<svg width="24" height="24" viewBox="0 0 24 24" fill="none" xmlns="http://www.w3.org/2000/svg">
<path d="M1 11.9886C1 7.01552 4.29687 2.8124 8.82371 1.44564C8.61696 1.79059 8.43076 2.14841 8.26639 2.51731C7.71933 3.74502 7.42517 5.07034 7.40146 6.4142C7.37775 7.75806 7.62497 9.09293 8.12837 10.3392C8.63177 11.5854 9.38105 12.7175 10.3315 13.6679C11.2819 14.6183 12.4141 15.3675 13.6604 15.8709C14.9067 16.3743 16.2416 16.6215 17.5855 16.5978C18.9294 16.5741 20.2548 16.2799 21.4825 15.7329C21.8519 15.5683 22.2102 15.3818 22.5556 15.1748C21.1907 19.7026 16.9872 23 12.0132 23C5.92995 23 1 18.0701 1 11.9886Z" stroke="black" stroke-width="2"/>
</svg>
