<svg width="10" height="6" viewBox="0 0 10 6" fill="none" xmlns="http://www.w3.org/2000/svg">
<path d="M1.76664 0.243351L4.99997 3.47668L8.2333 0.243351C8.31045 0.166199 8.40205 0.104999 8.50285 0.0632453C8.60365 0.0214912 8.71169 8.12925e-10 8.8208 0C8.92991 -8.12923e-10 9.03795 0.0214912 9.13875 0.0632453C9.23956 0.104999 9.33115 0.166199 9.4083 0.243351C9.48545 0.320502 9.54665 0.412095 9.58841 0.512898C9.63016 0.613701 9.65165 0.721742 9.65165 0.830851C9.65165 0.939959 9.63016 1.048 9.58841 1.1488C9.54665 1.24961 9.48545 1.3412 9.4083 1.41835L5.5833 5.24335C5.50621 5.3206 5.41463 5.38189 5.31382 5.42371C5.21301 5.46553 5.10494 5.48705 4.9958 5.48705C4.88666 5.48705 4.77859 5.46553 4.67778 5.42371C4.57697 5.38189 4.4854 5.3206 4.4083 5.24335L0.583303 1.41835C0.50605 1.34126 0.44476 1.24968 0.402942 1.14887C0.361124 1.04806 0.3396 0.939991 0.3396 0.830851C0.3396 0.72171 0.361124 0.613641 0.402942 0.51283C0.44476 0.412019 0.50605 0.320445 0.583303 0.243351C0.908303 -0.073316 1.44164 -0.0816493 1.76664 0.243351Z" fill="white"/>
</svg>
