<svg width="32" height="23" viewBox="0 0 32 23" fill="none" xmlns="http://www.w3.org/2000/svg">
<path d="M12.8924 0.616287C13.3034 1.0272 13.5006 1.52373 13.4842 2.10586C13.4663 2.68799 13.252 3.18451 12.8411 3.59542L7.03689 9.3996L29.9454 9.3996C30.5276 9.3996 31.0159 9.59684 31.4103 9.99132C31.8034 10.3844 32 10.8721 32 11.4542C32 12.0363 31.8034 12.5246 31.4103 12.9191C31.0159 13.3122 30.5276 13.5088 29.9454 13.5088L7.03689 13.5088L12.8924 19.3643C13.3034 19.7752 13.5088 20.2635 13.5088 20.8292C13.5088 21.3935 13.3034 21.8812 12.8924 22.2921C12.4815 22.703 11.9932 22.9084 11.4275 22.9084C10.8632 22.9084 10.3756 22.703 9.96466 22.2921L0.564977 12.8924C0.359519 12.6869 0.213641 12.4643 0.127349 12.2246C0.0424264 11.9849 -3.71696e-05 11.7281 -3.71456e-05 11.4542C-3.71217e-05 11.1802 0.0424265 10.9234 0.127349 10.6837C0.213641 10.444 0.359519 10.2214 0.564977 10.016L10.016 0.564924C10.3927 0.188252 10.8632 -8.76785e-05 11.4275 -8.76292e-05C11.9932 -8.75797e-05 12.4815 0.205372 12.8924 0.616287Z" fill="#273035"/>
</svg>
